<svg width="630" height="201" viewBox="0 0 630 201" fill="none" xmlns="http://www.w3.org/2000/svg">
<rect x="83" y="174.671" width="24" height="24" rx="12" fill="#414151"/>
<rect x="68" y="139.171" width="24" height="24" rx="12" fill="#414151"/>
<rect x="5" y="61.6713" width="24" height="24" rx="12" fill="#414151"/>
<rect x="72" y="61.6713" width="24" height="24" rx="12" fill="#414151"/>
<rect x="223" y="1.67126" width="24" height="24" rx="12" fill="#414151"/>
<rect x="160" y="118.171" width="24" height="24" rx="12" fill="#414151"/>
<rect x="258" y="136.171" width="24" height="24" rx="12" fill="#414151"/>
<rect x="226" y="89.6713" width="24" height="24" rx="12" fill="#414151"/>
<rect x="314.259" y="1.67126" width="24" height="24" rx="12" fill="#414151"/>
<rect x="589.259" y="170.857" width="24" height="24" rx="12" fill="#414151"/>
<rect x="597.259" y="100.171" width="24" height="24" rx="12" fill="#414151"/>
<rect x="558.259" y="112.671" width="24" height="24" rx="12" fill="#414151"/>
<rect x="583.259" y="41.6713" width="24" height="24" rx="12" fill="#414151"/>
<rect x="459.889" y="26.6713" width="24" height="24" rx="12" fill="#414151"/>
<rect x="529" y="65.6713" width="24" height="24" rx="12" fill="#414151"/>
<rect x="528" y="146.171" width="24" height="24" rx="12" fill="#414151"/>
<path d="M94.9898 187.171C94.9898 187.671 94.9198 188.128 94.7798 188.541C94.6465 188.955 94.4398 189.308 94.1598 189.601C93.8865 189.895 93.5398 190.121 93.1198 190.281C92.6998 190.441 92.2098 190.521 91.6498 190.521H90.8898C90.3298 190.521 89.8398 190.441 89.4198 190.281C88.9998 190.115 88.6498 189.885 88.3698 189.591C88.0965 189.298 87.8898 188.945 87.7498 188.531C87.6165 188.111 87.5498 187.651 87.5498 187.151V186.111C87.5498 185.618 87.6165 185.168 87.7498 184.761C87.8898 184.355 88.0965 184.008 88.3698 183.721C88.6498 183.435 88.9998 183.215 89.4198 183.061C89.8398 182.901 90.3298 182.821 90.8898 182.821H91.6498C92.2098 182.821 92.6998 182.901 93.1198 183.061C93.5398 183.221 93.8865 183.445 94.1598 183.731C94.4398 184.018 94.6465 184.368 94.7798 184.781C94.9198 185.188 94.9898 185.638 94.9898 186.131V187.171ZM89.6498 187.471C89.6498 187.991 89.7531 188.361 89.9598 188.581C90.1731 188.795 90.5298 188.901 91.0298 188.901H91.5098C92.0098 188.901 92.3631 188.795 92.5698 188.581C92.7831 188.361 92.8898 187.991 92.8898 187.471V185.851C92.8898 185.331 92.7831 184.965 92.5698 184.751C92.3631 184.538 92.0098 184.431 91.5098 184.431H91.0298C90.5298 184.431 90.1731 184.538 89.9598 184.751C89.7531 184.965 89.6498 185.331 89.6498 185.851V187.471Z" fill="#B5B5C2"/>
<path d="M96.4873 190.421V188.891H98.3773V184.871C98.3773 184.765 98.3506 184.685 98.2973 184.631C98.2506 184.571 98.1773 184.541 98.0773 184.541H96.5873V182.921H98.5073C99.074 182.921 99.5273 183.095 99.8673 183.441C100.207 183.781 100.377 184.215 100.377 184.741V188.891H102.007V190.421H96.4873Z" fill="#B5B5C2"/>
<path d="M79.9898 151.671C79.9898 152.171 79.9198 152.628 79.7798 153.041C79.6465 153.455 79.4398 153.808 79.1598 154.101C78.8865 154.395 78.5398 154.621 78.1198 154.781C77.6998 154.941 77.2098 155.021 76.6498 155.021H75.8898C75.3298 155.021 74.8398 154.941 74.4198 154.781C73.9998 154.615 73.6498 154.385 73.3698 154.091C73.0965 153.798 72.8898 153.445 72.7498 153.031C72.6165 152.611 72.5498 152.151 72.5498 151.651V150.611C72.5498 150.118 72.6165 149.668 72.7498 149.261C72.8898 148.855 73.0965 148.508 73.3698 148.221C73.6498 147.935 73.9998 147.715 74.4198 147.561C74.8398 147.401 75.3298 147.321 75.8898 147.321H76.6498C77.2098 147.321 77.6998 147.401 78.1198 147.561C78.5398 147.721 78.8865 147.945 79.1598 148.231C79.4398 148.518 79.6465 148.868 79.7798 149.281C79.9198 149.688 79.9898 150.138 79.9898 150.631V151.671ZM74.6498 151.971C74.6498 152.491 74.7531 152.861 74.9598 153.081C75.1731 153.295 75.5298 153.401 76.0298 153.401H76.5098C77.0098 153.401 77.3631 153.295 77.5698 153.081C77.7831 152.861 77.8898 152.491 77.8898 151.971V150.351C77.8898 149.831 77.7831 149.465 77.5698 149.251C77.3631 149.038 77.0098 148.931 76.5098 148.931H76.0298C75.5298 148.931 75.1731 149.038 74.9598 149.251C74.7531 149.465 74.6498 149.831 74.6498 150.351V151.971Z" fill="#B5B5C2"/>
<path d="M87.1769 153.351V154.921H80.9869V153.701C80.9869 153.381 81.0202 153.095 81.0869 152.841C81.1536 152.588 81.2702 152.355 81.4369 152.141C81.6036 151.921 81.8236 151.711 82.0969 151.511C82.3769 151.305 82.7269 151.091 83.1469 150.871L84.7369 150.041C84.9102 149.955 85.0336 149.871 85.1069 149.791C85.1803 149.705 85.2169 149.598 85.2169 149.471C85.2169 149.285 85.1536 149.158 85.0269 149.091C84.9002 149.025 84.7302 148.991 84.5169 148.991H81.1469V147.421H84.6869C85.5802 147.421 86.2336 147.585 86.6469 147.911C87.0602 148.231 87.2669 148.671 87.2669 149.231C87.2669 149.545 87.2202 149.815 87.1269 150.041C87.0336 150.268 86.8936 150.471 86.7069 150.651C86.5269 150.831 86.3036 151.005 86.0369 151.171C85.7702 151.331 85.4636 151.505 85.1169 151.691L83.6669 152.481C83.4402 152.601 83.2936 152.711 83.2269 152.811C83.1669 152.911 83.1369 153.025 83.1369 153.151V153.351H87.1769Z" fill="#B5B5C2"/>
<path d="M16.4898 74.1713C16.4898 74.6713 16.4198 75.128 16.2798 75.5413C16.1465 75.9546 15.9398 76.308 15.6598 76.6013C15.3865 76.8946 15.0398 77.1213 14.6198 77.2813C14.1998 77.4413 13.7098 77.5213 13.1498 77.5213H12.3898C11.8298 77.5213 11.3398 77.4413 10.9198 77.2813C10.4998 77.1146 10.1498 76.8846 9.8698 76.5913C9.59647 76.298 9.3898 75.9446 9.2498 75.5313C9.11647 75.1113 9.0498 74.6513 9.0498 74.1513V73.1113C9.0498 72.618 9.11647 72.168 9.2498 71.7613C9.3898 71.3546 9.59647 71.008 9.8698 70.7213C10.1498 70.4346 10.4998 70.2146 10.9198 70.0613C11.3398 69.9013 11.8298 69.8213 12.3898 69.8213H13.1498C13.7098 69.8213 14.1998 69.9013 14.6198 70.0613C15.0398 70.2213 15.3865 70.4446 15.6598 70.7313C15.9398 71.018 16.1465 71.368 16.2798 71.7813C16.4198 72.188 16.4898 72.638 16.4898 73.1313V74.1713ZM11.1498 74.4713C11.1498 74.9913 11.2531 75.3613 11.4598 75.5813C11.6731 75.7946 12.0298 75.9013 12.5298 75.9013H13.0098C13.5098 75.9013 13.8631 75.7946 14.0698 75.5813C14.2831 75.3613 14.3898 74.9913 14.3898 74.4713V72.8513C14.3898 72.3313 14.2831 71.9646 14.0698 71.7513C13.8631 71.538 13.5098 71.4313 13.0098 71.4313H12.5298C12.0298 71.4313 11.6731 71.538 11.4598 71.7513C11.2531 71.9646 11.1498 72.3313 11.1498 72.8513V74.4713Z" fill="#B5B5C2"/>
<path d="M19.6196 72.8913L21.4496 71.5213H17.9396V69.9213H24.2296V71.2213L21.6496 73.0913H21.7396C22.213 73.0913 22.6096 73.138 22.9296 73.2313C23.2496 73.318 23.5063 73.438 23.6996 73.5913C23.893 73.738 24.0296 73.9113 24.1096 74.1113C24.1963 74.3113 24.2396 74.5213 24.2396 74.7413V75.4713C24.2396 76.1313 23.9963 76.6213 23.5096 76.9413C23.023 77.2613 22.3063 77.4213 21.3596 77.4213H18.0896V75.8213H21.6196C21.833 75.8213 21.9863 75.7846 22.0796 75.7113C22.1796 75.6313 22.2296 75.478 22.2296 75.2513V74.9813C22.2296 74.7546 22.1763 74.608 22.0696 74.5413C21.9696 74.468 21.8263 74.4313 21.6396 74.4313H19.7896C19.5363 74.4313 19.343 74.3646 19.2096 74.2313C19.0763 74.098 19.0096 73.928 19.0096 73.7213C19.0096 73.548 19.063 73.4013 19.1696 73.2813C19.283 73.1546 19.433 73.0246 19.6196 72.8913Z" fill="#B5B5C2"/>
<path d="M83.4898 74.1713C83.4898 74.6713 83.4198 75.128 83.2798 75.5413C83.1465 75.9546 82.9398 76.308 82.6598 76.6013C82.3865 76.8946 82.0398 77.1213 81.6198 77.2813C81.1998 77.4413 80.7098 77.5213 80.1498 77.5213H79.3898C78.8298 77.5213 78.3398 77.4413 77.9198 77.2813C77.4998 77.1146 77.1498 76.8846 76.8698 76.5913C76.5965 76.298 76.3898 75.9446 76.2498 75.5313C76.1165 75.1113 76.0498 74.6513 76.0498 74.1513V73.1113C76.0498 72.618 76.1165 72.168 76.2498 71.7613C76.3898 71.3546 76.5965 71.008 76.8698 70.7213C77.1498 70.4346 77.4998 70.2146 77.9198 70.0613C78.3398 69.9013 78.8298 69.8213 79.3898 69.8213H80.1498C80.7098 69.8213 81.1998 69.9013 81.6198 70.0613C82.0398 70.2213 82.3865 70.4446 82.6598 70.7313C82.9398 71.018 83.1465 71.368 83.2798 71.7813C83.4198 72.188 83.4898 72.638 83.4898 73.1313V74.1713ZM78.1498 74.4713C78.1498 74.9913 78.2531 75.3613 78.4598 75.5813C78.6731 75.7946 79.0298 75.9013 79.5298 75.9013H80.0098C80.5098 75.9013 80.8631 75.7946 81.0698 75.5813C81.2831 75.3613 81.3898 74.9913 81.3898 74.4713V72.8513C81.3898 72.3313 81.2831 71.9646 81.0698 71.7513C80.8631 71.538 80.5098 71.4313 80.0098 71.4313H79.5298C79.0298 71.4313 78.6731 71.538 78.4598 71.7513C78.2531 71.9646 78.1498 72.3313 78.1498 72.8513V74.4713Z" fill="#B5B5C2"/>
<path d="M88.7273 72.6813C89.6806 72.6813 90.3506 72.8613 90.7373 73.2213C91.1306 73.5813 91.3273 74.1513 91.3273 74.9313V75.2013C91.3273 75.9013 91.1306 76.448 90.7373 76.8413C90.3506 77.228 89.6573 77.4213 88.6573 77.4213H85.1373V75.8513H88.4473C88.7873 75.8513 89.0173 75.8113 89.1373 75.7313C89.2573 75.6446 89.3173 75.468 89.3173 75.2013V74.9313C89.3173 74.6513 89.2573 74.4646 89.1373 74.3713C89.024 74.2713 88.8106 74.2213 88.4973 74.2213H85.1373V69.9213H91.2573V71.5913H86.9373V72.6813H88.7273Z" fill="#B5B5C2"/>
<path d="M233.99 14.1713C233.99 14.6713 233.92 15.128 233.78 15.5413C233.646 15.9546 233.44 16.308 233.16 16.6013C232.886 16.8946 232.54 17.1213 232.12 17.2813C231.7 17.4413 231.21 17.5213 230.65 17.5213H229.89C229.33 17.5213 228.84 17.4413 228.42 17.2813C228 17.1146 227.65 16.8846 227.37 16.5913C227.096 16.298 226.89 15.9446 226.75 15.5313C226.616 15.1113 226.55 14.6513 226.55 14.1513V13.1113C226.55 12.618 226.616 12.168 226.75 11.7613C226.89 11.3546 227.096 11.008 227.37 10.7213C227.65 10.4346 228 10.2146 228.42 10.0613C228.84 9.90129 229.33 9.82129 229.89 9.82129H230.65C231.21 9.82129 231.7 9.90129 232.12 10.0613C232.54 10.2213 232.886 10.4446 233.16 10.7313C233.44 11.018 233.646 11.368 233.78 11.7813C233.92 12.188 233.99 12.638 233.99 13.1313V14.1713ZM228.65 14.4713C228.65 14.9913 228.753 15.3613 228.96 15.5813C229.173 15.7946 229.53 15.9013 230.03 15.9013H230.51C231.01 15.9013 231.363 15.7946 231.57 15.5813C231.783 15.3613 231.89 14.9913 231.89 14.4713V12.8513C231.89 12.3313 231.783 11.9646 231.57 11.7513C231.363 11.538 231.01 11.4313 230.51 11.4313H230.03C229.53 11.4313 229.173 11.538 228.96 11.7513C228.753 11.9646 228.65 12.3313 228.65 12.8513V14.4713Z" fill="#B5B5C2"/>
<path d="M237.087 16.2713C236.467 16.2713 236.011 16.148 235.717 15.9013C235.431 15.648 235.287 15.3313 235.287 14.9513C235.287 14.6913 235.347 14.438 235.467 14.1913C235.594 13.938 235.801 13.6313 236.087 13.2713L237.897 11.0013C238.184 10.6413 238.497 10.3546 238.837 10.1413C239.184 9.92796 239.557 9.82129 239.957 9.82129H240.217C240.677 9.82129 241.064 9.96462 241.377 10.2513C241.697 10.538 241.857 10.9913 241.857 11.6113V14.7413H243.007V16.2713H241.857V17.4213H239.907V16.2713H237.087ZM237.667 14.7413H239.907V11.7713C239.907 11.7046 239.891 11.658 239.857 11.6313C239.824 11.598 239.781 11.5813 239.727 11.5813C239.687 11.5813 239.651 11.5946 239.617 11.6213C239.591 11.6413 239.564 11.6713 239.537 11.7113L237.487 14.3413C237.461 14.3813 237.437 14.418 237.417 14.4513C237.404 14.4846 237.397 14.518 237.397 14.5513C237.397 14.6046 237.414 14.6513 237.447 14.6913C237.487 14.7246 237.561 14.7413 237.667 14.7413Z" fill="#B5B5C2"/>
<path d="M171.49 130.671C171.49 131.171 171.42 131.628 171.28 132.041C171.146 132.455 170.94 132.808 170.66 133.101C170.386 133.395 170.04 133.621 169.62 133.781C169.2 133.941 168.71 134.021 168.15 134.021H167.39C166.83 134.021 166.34 133.941 165.92 133.781C165.5 133.615 165.15 133.385 164.87 133.091C164.596 132.798 164.39 132.445 164.25 132.031C164.116 131.611 164.05 131.151 164.05 130.651V129.611C164.05 129.118 164.116 128.668 164.25 128.261C164.39 127.855 164.596 127.508 164.87 127.221C165.15 126.935 165.5 126.715 165.92 126.561C166.34 126.401 166.83 126.321 167.39 126.321H168.15C168.71 126.321 169.2 126.401 169.62 126.561C170.04 126.721 170.386 126.945 170.66 127.231C170.94 127.518 171.146 127.868 171.28 128.281C171.42 128.688 171.49 129.138 171.49 129.631V130.671ZM166.15 130.971C166.15 131.491 166.253 131.861 166.46 132.081C166.673 132.295 167.03 132.401 167.53 132.401H168.01C168.51 132.401 168.863 132.295 169.07 132.081C169.283 131.861 169.39 131.491 169.39 130.971V129.351C169.39 128.831 169.283 128.465 169.07 128.251C168.863 128.038 168.51 127.931 168.01 127.931H167.53C167.03 127.931 166.673 128.038 166.46 128.251C166.253 128.465 166.15 128.831 166.15 129.351V130.971Z" fill="#B5B5C2"/>
<path d="M176.877 129.261C177.884 129.261 178.627 129.438 179.107 129.791C179.587 130.145 179.827 130.658 179.827 131.331V131.671C179.827 132.418 179.591 132.988 179.117 133.381C178.644 133.775 177.884 133.971 176.837 133.971H176.447C175.281 133.971 174.427 133.725 173.887 133.231C173.354 132.731 173.087 131.948 173.087 130.881V129.571C173.087 129.091 173.154 128.658 173.287 128.271C173.427 127.878 173.641 127.548 173.927 127.281C174.221 127.008 174.594 126.798 175.047 126.651C175.501 126.498 176.041 126.421 176.667 126.421H179.497V127.941H176.597C176.017 127.941 175.627 128.035 175.427 128.221C175.234 128.408 175.137 128.721 175.137 129.161V129.261H176.877ZM176.387 132.541H176.637C177.104 132.541 177.417 132.475 177.577 132.341C177.737 132.201 177.817 132.005 177.817 131.751V131.531C177.817 131.238 177.737 131.035 177.577 130.921C177.424 130.808 177.141 130.751 176.727 130.751H175.137V131.371C175.137 131.838 175.224 132.151 175.397 132.311C175.577 132.465 175.907 132.541 176.387 132.541Z" fill="#B5B5C2"/>
<path d="M269.99 148.671C269.99 149.171 269.92 149.628 269.78 150.041C269.646 150.455 269.44 150.808 269.16 151.101C268.886 151.395 268.54 151.621 268.12 151.781C267.7 151.941 267.21 152.021 266.65 152.021H265.89C265.33 152.021 264.84 151.941 264.42 151.781C264 151.615 263.65 151.385 263.37 151.091C263.096 150.798 262.89 150.445 262.75 150.031C262.616 149.611 262.55 149.151 262.55 148.651V147.611C262.55 147.118 262.616 146.668 262.75 146.261C262.89 145.855 263.096 145.508 263.37 145.221C263.65 144.935 264 144.715 264.42 144.561C264.84 144.401 265.33 144.321 265.89 144.321H266.65C267.21 144.321 267.7 144.401 268.12 144.561C268.54 144.721 268.886 144.945 269.16 145.231C269.44 145.518 269.646 145.868 269.78 146.281C269.92 146.688 269.99 147.138 269.99 147.631V148.671ZM264.65 148.971C264.65 149.491 264.753 149.861 264.96 150.081C265.173 150.295 265.53 150.401 266.03 150.401H266.51C267.01 150.401 267.363 150.295 267.57 150.081C267.783 149.861 267.89 149.491 267.89 148.971V147.351C267.89 146.831 267.783 146.465 267.57 146.251C267.363 146.038 267.01 145.931 266.51 145.931H266.03C265.53 145.931 265.173 146.038 264.96 146.251C264.753 146.465 264.65 146.831 264.65 147.351V148.971Z" fill="#B5B5C2"/>
<path d="M273.792 151.921H271.612L274.822 146.571C274.875 146.485 274.908 146.411 274.922 146.351C274.942 146.285 274.952 146.225 274.952 146.171C274.952 146.098 274.925 146.045 274.872 146.011C274.818 145.971 274.738 145.951 274.632 145.951H270.852V144.421H275.262C275.882 144.421 276.335 144.545 276.622 144.791C276.908 145.038 277.052 145.375 277.052 145.801C277.052 146.048 276.998 146.298 276.892 146.551C276.792 146.805 276.665 147.065 276.512 147.331L273.792 151.921Z" fill="#B5B5C2"/>
<path d="M237.49 102.171C237.49 102.671 237.42 103.128 237.28 103.541C237.146 103.955 236.94 104.308 236.66 104.601C236.386 104.895 236.04 105.121 235.62 105.281C235.2 105.441 234.71 105.521 234.15 105.521H233.39C232.83 105.521 232.34 105.441 231.92 105.281C231.5 105.115 231.15 104.885 230.87 104.591C230.596 104.298 230.39 103.945 230.25 103.531C230.116 103.111 230.05 102.651 230.05 102.151V101.111C230.05 100.618 230.116 100.168 230.25 99.7613C230.39 99.3546 230.596 99.008 230.87 98.7213C231.15 98.4346 231.5 98.2146 231.92 98.0613C232.34 97.9013 232.83 97.8213 233.39 97.8213H234.15C234.71 97.8213 235.2 97.9013 235.62 98.0613C236.04 98.2213 236.386 98.4446 236.66 98.7313C236.94 99.018 237.146 99.368 237.28 99.7813C237.42 100.188 237.49 100.638 237.49 101.131V102.171ZM232.15 102.471C232.15 102.991 232.253 103.361 232.46 103.581C232.673 103.795 233.03 103.901 233.53 103.901H234.01C234.51 103.901 234.863 103.795 235.07 103.581C235.283 103.361 235.39 102.991 235.39 102.471V100.851C235.39 100.331 235.283 99.9646 235.07 99.7513C234.863 99.538 234.51 99.4313 234.01 99.4313H233.53C233.03 99.4313 232.673 99.538 232.46 99.7513C232.253 99.9646 232.15 100.331 232.15 100.851V102.471Z" fill="#B5B5C2"/>
<path d="M239.097 99.6813C239.097 99.0346 239.351 98.5646 239.857 98.2713C240.371 97.9713 241.161 97.8213 242.227 97.8213H242.457C243.524 97.8213 244.311 97.9713 244.817 98.2713C245.331 98.5646 245.587 99.0346 245.587 99.6813V100.081C245.587 100.401 245.501 100.705 245.327 100.991C245.161 101.278 244.817 101.491 244.297 101.631C244.877 101.771 245.271 101.988 245.477 102.281C245.691 102.568 245.797 102.875 245.797 103.201V103.621C245.797 104.268 245.537 104.748 245.017 105.061C244.497 105.368 243.677 105.521 242.557 105.521H242.127C241.007 105.521 240.187 105.368 239.667 105.061C239.147 104.748 238.887 104.268 238.887 103.621V103.201C238.887 102.875 238.991 102.568 239.197 102.281C239.411 101.988 239.807 101.771 240.387 101.631C239.867 101.491 239.521 101.278 239.347 100.991C239.181 100.705 239.097 100.401 239.097 100.081V99.6813ZM243.677 99.9213C243.677 99.6946 243.597 99.5346 243.437 99.4413C243.284 99.348 242.987 99.3013 242.547 99.3013H242.137C241.697 99.3013 241.397 99.348 241.237 99.4413C241.084 99.5346 241.007 99.6946 241.007 99.9213V100.271C241.007 100.498 241.087 100.658 241.247 100.751C241.407 100.845 241.721 100.891 242.187 100.891H242.497C242.964 100.891 243.277 100.845 243.437 100.751C243.597 100.658 243.677 100.498 243.677 100.271V99.9213ZM243.887 103.001C243.887 102.775 243.807 102.611 243.647 102.511C243.494 102.411 243.197 102.361 242.757 102.361H241.927C241.487 102.361 241.187 102.411 241.027 102.511C240.874 102.611 240.797 102.775 240.797 103.001V103.351C240.797 103.578 240.877 103.751 241.037 103.871C241.197 103.985 241.511 104.041 241.977 104.041H242.707C243.174 104.041 243.487 103.985 243.647 103.871C243.807 103.751 243.887 103.578 243.887 103.351V103.001Z" fill="#B5B5C2"/>
<path d="M325.749 14.1713C325.749 14.6713 325.679 15.128 325.539 15.5413C325.405 15.9546 325.199 16.308 324.919 16.6013C324.645 16.8946 324.299 17.1213 323.879 17.2813C323.459 17.4413 322.969 17.5213 322.409 17.5213H321.649C321.089 17.5213 320.599 17.4413 320.179 17.2813C319.759 17.1146 319.409 16.8846 319.129 16.5913C318.855 16.298 318.649 15.9446 318.509 15.5313C318.375 15.1113 318.309 14.6513 318.309 14.1513V13.1113C318.309 12.618 318.375 12.168 318.509 11.7613C318.649 11.3546 318.855 11.008 319.129 10.7213C319.409 10.4346 319.759 10.2146 320.179 10.0613C320.599 9.90129 321.089 9.82129 321.649 9.82129H322.409C322.969 9.82129 323.459 9.90129 323.879 10.0613C324.299 10.2213 324.645 10.4446 324.919 10.7313C325.199 11.018 325.405 11.368 325.539 11.7813C325.679 12.188 325.749 12.638 325.749 13.1313V14.1713ZM320.409 14.4713C320.409 14.9913 320.512 15.3613 320.719 15.5813C320.932 15.7946 321.289 15.9013 321.789 15.9013H322.269C322.769 15.9013 323.122 15.7946 323.329 15.5813C323.542 15.3613 323.649 14.9913 323.649 14.4713V12.8513C323.649 12.3313 323.542 11.9646 323.329 11.7513C323.122 11.538 322.769 11.4313 322.269 11.4313H321.789C321.289 11.4313 320.932 11.538 320.719 11.7513C320.512 11.9646 320.409 12.3313 320.409 12.8513V14.4713Z" fill="#B5B5C2"/>
<path d="M330.196 14.5813C329.189 14.5813 328.446 14.4046 327.966 14.0513C327.486 13.698 327.246 13.1846 327.246 12.5113V12.1713C327.246 11.4246 327.483 10.8546 327.956 10.4613C328.429 10.068 329.189 9.87129 330.236 9.87129H330.626C331.793 9.87129 332.643 10.1213 333.176 10.6213C333.716 11.1146 333.986 11.8946 333.986 12.9613V14.2713C333.986 14.7513 333.916 15.188 333.776 15.5813C333.643 15.968 333.429 16.298 333.136 16.5713C332.849 16.838 332.479 17.048 332.026 17.2013C331.573 17.348 331.033 17.4213 330.406 17.4213H327.576V15.9013H330.476C331.056 15.9013 331.443 15.808 331.636 15.6213C331.836 15.4346 331.936 15.1213 331.936 14.6813V14.5813H330.196ZM330.346 13.0913H331.936V12.4713C331.936 12.0046 331.846 11.6946 331.666 11.5413C331.493 11.3813 331.166 11.3013 330.686 11.3013H330.436C329.969 11.3013 329.656 11.3713 329.496 11.5113C329.336 11.6446 329.256 11.838 329.256 12.0913V12.3113C329.256 12.6046 329.333 12.808 329.486 12.9213C329.646 13.0346 329.933 13.0913 330.346 13.0913Z" fill="#B5B5C2"/>
<path d="M594.209 186.607V185.077H596.099V181.057C596.099 180.951 596.072 180.871 596.019 180.817C595.972 180.757 595.899 180.727 595.799 180.727H594.309V179.107H596.229C596.795 179.107 597.249 179.281 597.589 179.627C597.929 179.967 598.099 180.401 598.099 180.927V185.077H599.729V186.607H594.209Z" fill="#B5B5C2"/>
<path d="M604.714 181.947C605.721 181.947 606.464 182.124 606.944 182.477C607.424 182.831 607.664 183.344 607.664 184.017V184.357C607.664 185.104 607.428 185.674 606.954 186.067C606.481 186.461 605.721 186.657 604.674 186.657H604.284C603.118 186.657 602.264 186.411 601.724 185.917C601.191 185.417 600.924 184.634 600.924 183.567V182.257C600.924 181.777 600.991 181.344 601.124 180.957C601.264 180.564 601.478 180.234 601.764 179.967C602.058 179.694 602.431 179.484 602.884 179.337C603.338 179.184 603.878 179.107 604.504 179.107H607.334V180.627H604.434C603.854 180.627 603.464 180.721 603.264 180.907C603.071 181.094 602.974 181.407 602.974 181.847V181.947H604.714ZM604.224 185.227H604.474C604.941 185.227 605.254 185.161 605.414 185.027C605.574 184.887 605.654 184.691 605.654 184.437V184.217C605.654 183.924 605.574 183.721 605.414 183.607C605.261 183.494 604.978 183.437 604.564 183.437H602.974V184.057C602.974 184.524 603.061 184.837 603.234 184.997C603.414 185.151 603.744 185.227 604.224 185.227Z" fill="#B5B5C2"/>
<path d="M602.209 115.921V114.391H604.099V110.371C604.099 110.265 604.072 110.185 604.019 110.131C603.972 110.071 603.899 110.041 603.799 110.041H602.309V108.421H604.229C604.795 108.421 605.249 108.595 605.589 108.941C605.929 109.281 606.099 109.715 606.099 110.241V114.391H607.729V115.921H602.209Z" fill="#B5B5C2"/>
<path d="M612.867 111.181C613.82 111.181 614.49 111.361 614.877 111.721C615.27 112.081 615.467 112.651 615.467 113.431V113.701C615.467 114.401 615.27 114.948 614.877 115.341C614.49 115.728 613.797 115.921 612.797 115.921H609.277V114.351H612.587C612.927 114.351 613.157 114.311 613.277 114.231C613.397 114.145 613.457 113.968 613.457 113.701V113.431C613.457 113.151 613.397 112.965 613.277 112.871C613.164 112.771 612.95 112.721 612.637 112.721H609.277V108.421H615.397V110.091H611.077V111.181H612.867Z" fill="#B5B5C2"/>
<path d="M563.209 128.421V126.891H565.099V122.871C565.099 122.765 565.072 122.685 565.019 122.631C564.972 122.571 564.899 122.541 564.799 122.541H563.309V120.921H565.229C565.795 120.921 566.249 121.095 566.589 121.441C566.929 121.781 567.099 122.215 567.099 122.741V126.891H568.729V128.421H563.209Z" fill="#B5B5C2"/>
<path d="M571.229 127.271C570.609 127.271 570.152 127.148 569.859 126.901C569.572 126.648 569.429 126.331 569.429 125.951C569.429 125.691 569.489 125.438 569.609 125.191C569.736 124.938 569.942 124.631 570.229 124.271L572.039 122.001C572.326 121.641 572.639 121.355 572.979 121.141C573.326 120.928 573.699 120.821 574.099 120.821H574.359C574.819 120.821 575.206 120.965 575.519 121.251C575.839 121.538 575.999 121.991 575.999 122.611V125.741H577.149V127.271H575.999V128.421H574.049V127.271H571.229ZM571.809 125.741H574.049V122.771C574.049 122.705 574.032 122.658 573.999 122.631C573.966 122.598 573.922 122.581 573.869 122.581C573.829 122.581 573.792 122.595 573.759 122.621C573.732 122.641 573.706 122.671 573.679 122.711L571.629 125.341C571.602 125.381 571.579 125.418 571.559 125.451C571.546 125.485 571.539 125.518 571.539 125.551C571.539 125.605 571.556 125.651 571.589 125.691C571.629 125.725 571.702 125.741 571.809 125.741Z" fill="#B5B5C2"/>
<path d="M588.209 57.4213V55.8913H590.099V51.8713C590.099 51.7646 590.072 51.6846 590.019 51.6313C589.972 51.5713 589.899 51.5413 589.799 51.5413H588.309V49.9213H590.229C590.795 49.9213 591.249 50.0946 591.589 50.4413C591.929 50.7813 592.099 51.2146 592.099 51.7413V55.8913H593.729V57.4213H588.209Z" fill="#B5B5C2"/>
<path d="M596.857 52.8913L598.687 51.5213H595.177V49.9213H601.467V51.2213L598.887 53.0913H598.977C599.45 53.0913 599.847 53.138 600.167 53.2313C600.487 53.318 600.744 53.438 600.937 53.5913C601.13 53.738 601.267 53.9113 601.347 54.1113C601.434 54.3113 601.477 54.5213 601.477 54.7413V55.4713C601.477 56.1313 601.234 56.6213 600.747 56.9413C600.26 57.2613 599.544 57.4213 598.597 57.4213H595.327V55.8213H598.857C599.07 55.8213 599.224 55.7846 599.317 55.7113C599.417 55.6313 599.467 55.478 599.467 55.2513V54.9813C599.467 54.7546 599.414 54.608 599.307 54.5413C599.207 54.468 599.064 54.4313 598.877 54.4313H597.027C596.774 54.4313 596.58 54.3646 596.447 54.2313C596.314 54.098 596.247 53.928 596.247 53.7213C596.247 53.548 596.3 53.4013 596.407 53.2813C596.52 53.1546 596.67 53.0246 596.857 52.8913Z" fill="#B5B5C2"/>
<path d="M465.338 42.4213V40.8913H467.228V36.8713C467.228 36.7646 467.202 36.6846 467.148 36.6313C467.102 36.5713 467.028 36.5413 466.928 36.5413H465.438V34.9213H467.358C467.925 34.9213 468.378 35.0946 468.718 35.4413C469.058 35.7813 469.228 36.2146 469.228 36.7413V40.8913H470.858V42.4213H465.338Z" fill="#B5B5C2"/>
<path d="M478.347 40.8513V42.4213H472.157V41.2013C472.157 40.8813 472.19 40.5946 472.257 40.3413C472.324 40.088 472.44 39.8546 472.607 39.6413C472.774 39.4213 472.994 39.2113 473.267 39.0113C473.547 38.8046 473.897 38.5913 474.317 38.3713L475.907 37.5413C476.08 37.4546 476.203 37.3713 476.277 37.2913C476.35 37.2046 476.387 37.098 476.387 36.9713C476.387 36.7846 476.324 36.658 476.197 36.5913C476.07 36.5246 475.9 36.4913 475.687 36.4913H472.317V34.9213H475.857C476.75 34.9213 477.404 35.0846 477.817 35.4113C478.23 35.7313 478.437 36.1713 478.437 36.7313C478.437 37.0446 478.39 37.3146 478.297 37.5413C478.204 37.768 478.063 37.9713 477.877 38.1513C477.697 38.3313 477.474 38.5046 477.207 38.6713C476.94 38.8313 476.634 39.0046 476.287 39.1913L474.837 39.9813C474.61 40.1013 474.464 40.2113 474.397 40.3113C474.337 40.4113 474.307 40.5246 474.307 40.6513V40.8513H478.347Z" fill="#B5B5C2"/>
<path d="M534.45 81.4213V79.8913H536.34V75.8713C536.34 75.7646 536.313 75.6846 536.26 75.6313C536.213 75.5713 536.14 75.5413 536.04 75.5413H534.55V73.9213H536.47C537.036 73.9213 537.49 74.0946 537.83 74.4413C538.17 74.7813 538.34 75.2146 538.34 75.7413V79.8913H539.97V81.4213H534.45Z" fill="#B5B5C2"/>
<path d="M541.368 81.4213V79.8913H543.258V75.8713C543.258 75.7646 543.231 75.6846 543.178 75.6313C543.131 75.5713 543.058 75.5413 542.958 75.5413H541.468V73.9213H543.388C543.955 73.9213 544.408 74.0946 544.748 74.4413C545.088 74.7813 545.258 75.2146 545.258 75.7413V79.8913H546.888V81.4213H541.368Z" fill="#B5B5C2"/>
<path d="M532.45 161.921V160.391H534.34V156.371C534.34 156.265 534.313 156.185 534.26 156.131C534.213 156.071 534.14 156.041 534.04 156.041H532.55V154.421H534.47C535.036 154.421 535.49 154.595 535.83 154.941C536.17 155.281 536.34 155.715 536.34 156.241V160.391H537.97V161.921H532.45Z" fill="#B5B5C2"/>
<path d="M546.605 158.671C546.605 159.171 546.535 159.628 546.395 160.041C546.262 160.455 546.055 160.808 545.775 161.101C545.502 161.395 545.155 161.621 544.735 161.781C544.315 161.941 543.825 162.021 543.265 162.021H542.505C541.945 162.021 541.455 161.941 541.035 161.781C540.615 161.615 540.265 161.385 539.985 161.091C539.712 160.798 539.505 160.445 539.365 160.031C539.232 159.611 539.165 159.151 539.165 158.651V157.611C539.165 157.118 539.232 156.668 539.365 156.261C539.505 155.855 539.712 155.508 539.985 155.221C540.265 154.935 540.615 154.715 541.035 154.561C541.455 154.401 541.945 154.321 542.505 154.321H543.265C543.825 154.321 544.315 154.401 544.735 154.561C545.155 154.721 545.502 154.945 545.775 155.231C546.055 155.518 546.262 155.868 546.395 156.281C546.535 156.688 546.605 157.138 546.605 157.631V158.671ZM541.265 158.971C541.265 159.491 541.369 159.861 541.575 160.081C541.789 160.295 542.145 160.401 542.645 160.401H543.125C543.625 160.401 543.979 160.295 544.185 160.081C544.399 159.861 544.505 159.491 544.505 158.971V157.351C544.505 156.831 544.399 156.465 544.185 156.251C543.979 156.038 543.625 155.931 543.125 155.931H542.645C542.145 155.931 541.789 156.038 541.575 156.251C541.369 156.465 541.265 156.831 541.265 157.351V158.971Z" fill="#B5B5C2"/>
</svg>
