<svg width="630" height="201" viewBox="0 0 630 201" fill="none" xmlns="http://www.w3.org/2000/svg">
<path d="M132.288 186.857H447.215H561.093C577.823 186.857 594.259 169.541 594.259 151.344V120.82C594.259 115.243 589.269 113.776 583.693 112.895C578.116 112.015 576.355 110.841 576.355 103.503C576.355 96.1657 579.584 75.0336 579.584 65.3481C579.584 55.6626 575.475 53.3146 569.311 51.5536C563.148 49.7925 527.634 36.8784 513.546 33.063C499.458 29.2476 485.663 39.2265 485.663 58.0106C485.663 76.7946 500.925 76.5011 520.884 85.5997C540.842 94.6982 544.364 115.83 544.364 124.929C544.364 134.027 532.917 145.474 522.351 138.43C511.785 131.386 374.133 48.912 352.414 36.8784C330.695 24.8447 310.15 30.715 299.29 45.6835C288.431 60.6521 263.483 96.7527 256.733 107.906C249.982 119.059 252.624 130.799 252.624 138.43C252.624 146.061 243.232 153.985 234.72 153.985H193.043C181.009 153.985 165.16 147.235 155.475 141.365C145.789 135.495 118.787 117.591 108.515 110.841C98.2424 104.09 98.5355 99.6877 98.5355 94.1112C98.5355 88.5347 104.406 80.61 115.852 80.61H188.934C217.99 80.61 228.85 56.2496 228.85 43.9225C228.85 31.5955 217.403 21.3229 205.076 21.3229H108.515C93.5464 21.3229 73.2944 27.1928 60.3808 36.8784C47.4671 46.5639 34.2588 58.5974 34.2588 80.61C34.2588 102.623 49.8147 118.472 60.3808 122.581L61.1673 122.887C71.1487 126.768 75.2357 128.357 93.5462 136.082C112.33 144.006 108.515 163.671 108.515 170.128C108.515 176.585 113.211 186.857 132.288 186.857Z" stroke="#414151" stroke-width="3"/>
</svg>
